<svg width="74" height="73" viewBox="0 0 74 73" fill="none" xmlns="http://www.w3.org/2000/svg">
<circle cx="36.7856" cy="36.5" r="36.5" fill="white"/>
<circle cx="36.7856" cy="36.5" r="36" stroke="black" stroke-opacity="0.2"/>
<path d="M36.7878 22.0227C41.5033 22.0227 42.0618 22.0404 43.9246 22.1253C45.0446 22.139 46.154 22.3447 47.2046 22.7334C47.9664 23.0272 48.6582 23.4773 49.2356 24.0546C49.813 24.632 50.263 25.3238 50.5568 26.0857C50.9455 27.1362 51.1512 28.2456 51.1649 29.3656C51.249 31.2285 51.2675 31.7869 51.2675 36.5025C51.2675 41.218 51.2498 41.7765 51.1649 43.6393C51.1512 44.7593 50.9455 45.8687 50.5568 46.9193C50.263 47.6811 49.813 48.3729 49.2356 48.9503C48.6582 49.5277 47.9664 49.9777 47.2046 50.2715C46.154 50.6602 45.0446 50.8659 43.9246 50.8796C42.0626 50.9637 41.5042 50.9822 36.7878 50.9822C32.0714 50.9822 31.5129 50.9645 29.6509 50.8796C28.5309 50.8659 27.4215 50.6602 26.371 50.2715C25.6091 49.9777 24.9173 49.5277 24.3399 48.9503C23.7625 48.3729 23.3125 47.6811 23.0187 46.9193C22.63 45.8687 22.4243 44.7593 22.4106 43.6393C22.3265 41.7765 22.308 41.218 22.308 36.5025C22.308 31.7869 22.3257 31.2285 22.4106 29.3656C22.4243 28.2456 22.63 27.1362 23.0187 26.0857C23.3125 25.3238 23.7625 24.632 24.3399 24.0546C24.9173 23.4773 25.6091 23.0272 26.371 22.7334C27.4215 22.3447 28.5309 22.139 29.6509 22.1253C31.5138 22.0412 32.0722 22.0227 36.7878 22.0227V22.0227ZM36.7878 18.8403C31.994 18.8403 31.3901 18.8605 29.5063 18.9463C28.0404 18.9755 26.5901 19.253 25.2171 19.7671C24.0392 20.2109 22.9724 20.9063 22.091 21.8049C21.1917 22.6866 20.4956 23.754 20.0516 24.9326C19.5375 26.3057 19.2599 27.756 19.2308 29.2218C19.1466 31.104 19.1265 31.7078 19.1265 36.5016C19.1265 41.2954 19.1466 41.8992 19.2324 43.7831C19.2616 45.249 19.5391 46.6993 20.0533 48.0723C20.4968 49.2507 21.1923 50.3182 22.091 51.2C22.9729 52.0988 24.0403 52.7942 25.2188 53.2378C26.5918 53.7519 28.0421 54.0295 29.5079 54.0586C31.3918 54.1427 31.9931 54.1646 36.7894 54.1646C41.5857 54.1646 42.1871 54.1444 44.0709 54.0586C45.5368 54.0295 46.9871 53.7519 48.3601 53.2378C49.533 52.7832 50.598 52.0888 51.4872 51.199C52.3764 50.3093 53.0701 49.2438 53.5239 48.0706C54.0381 46.6976 54.3156 45.2473 54.3448 43.7814C54.4289 41.8992 54.449 41.2954 54.449 36.5016C54.449 31.7078 54.4289 31.104 54.3431 29.2201C54.3139 27.7543 54.0364 26.304 53.5222 24.931C53.0787 23.7525 52.3832 22.6851 51.4845 21.8032C50.6026 20.9045 49.5352 20.209 48.3567 19.7654C46.9837 19.2513 45.5334 18.9738 44.0676 18.9446C42.1854 18.8605 41.5815 18.8403 36.7878 18.8403Z" fill="black"/>
<path d="M36.7913 27.4355C34.9975 27.4355 33.244 27.9675 31.7526 28.964C30.2611 29.9606 29.0986 31.3771 28.4122 33.0343C27.7257 34.6915 27.5461 36.5151 27.8961 38.2744C28.246 40.0337 29.1098 41.6497 30.3782 42.9181C31.6466 44.1865 33.2626 45.0503 35.0219 45.4003C36.7812 45.7502 38.6048 45.5706 40.262 44.8842C41.9193 44.1977 43.3357 43.0353 44.3323 41.5438C45.3289 40.0523 45.8608 38.2988 45.8608 36.505C45.8608 34.0997 44.9053 31.7928 43.2044 30.0919C41.5035 28.3911 39.1967 27.4355 36.7913 27.4355ZM36.7913 42.3921C35.6269 42.3921 34.4887 42.0469 33.5206 41.4C32.5525 40.7531 31.7979 39.8337 31.3523 38.7579C30.9068 37.6822 30.7902 36.4985 31.0173 35.3565C31.2445 34.2145 31.8052 33.1656 32.6285 32.3422C33.4518 31.5189 34.5008 30.9582 35.6428 30.7311C36.7848 30.5039 37.9685 30.6205 39.0442 31.0661C40.1199 31.5117 41.0394 32.2662 41.6862 33.2343C42.3331 34.2025 42.6784 35.3407 42.6784 36.505C42.6784 38.0664 42.0582 39.5638 40.9541 40.6678C39.8501 41.7719 38.3527 42.3921 36.7913 42.3921V42.3921Z" fill="black"/>
<path d="M46.2173 29.1948C47.3877 29.1948 48.3366 28.2459 48.3366 27.0754C48.3366 25.9049 47.3877 24.9561 46.2173 24.9561C45.0468 24.9561 44.0979 25.9049 44.0979 27.0754C44.0979 28.2459 45.0468 29.1948 46.2173 29.1948Z" fill="black"/>
</svg>
