<svg width="32" height="32" viewBox="0 0 32 32" fill="none" xmlns="http://www.w3.org/2000/svg">
<path d="M11.98 9.92401L8.05998 9.45201C7.14532 9.34268 6.68932 9.28668 6.30932 9.38135C5.80265 9.50801 5.37198 9.81601 5.11065 10.2373C4.91465 10.552 4.85465 10.976 4.73732 11.8213C4.61732 12.668 4.55865 13.0907 4.66132 13.4427C4.79732 13.9107 5.12932 14.3093 5.58398 14.552C5.92532 14.7333 6.87198 14.848 7.78532 14.9573L6.60798 23.3547C5.69465 23.2453 4.74665 23.1307 4.36798 23.2267C3.86132 23.352 3.43065 23.66 3.16798 24.08C2.97332 24.3973 2.91465 24.82 2.79465 25.6667C2.67598 26.512 2.61732 26.9347 2.71865 27.2867C2.85598 27.7547 3.18798 28.1534 3.64265 28.396C3.98265 28.5787 4.43998 28.6333 5.35332 28.7427L9.27332 29.2147C10.188 29.324 10.644 29.38 11.024 29.284C11.5192 29.166 11.9491 28.86 12.2227 28.4307C12.4187 28.1133 12.4787 27.6907 12.596 26.844C12.716 25.9987 12.7747 25.5773 12.672 25.224C12.5995 24.9871 12.4806 24.7671 12.3222 24.5766C12.1638 24.3861 11.969 24.2291 11.7493 24.1147C11.408 23.9333 10.4613 23.8187 9.54798 23.7093L10.7253 15.312C11.6387 15.4213 12.5867 15.536 12.9653 15.44C13.472 15.3147 13.9026 15.0067 14.1653 14.5867C14.36 14.2693 14.4187 13.8467 14.5387 13C14.6573 12.1547 14.716 11.732 14.6147 11.38C14.542 11.143 14.4229 10.9229 14.2642 10.7324C14.1056 10.5419 13.9106 10.385 13.6906 10.2707C13.3506 10.088 12.8933 10.0333 11.98 9.92401ZM27.048 21.444L23.432 22.3773C22.5893 22.5947 22.1693 22.7027 21.8 22.656C21.3129 22.5956 20.8684 22.3485 20.56 21.9667C20.3333 21.6827 20.22 21.2773 19.9947 20.4667C19.768 19.656 19.656 19.2507 19.704 18.8947C19.7693 18.4213 20.0266 17.992 20.42 17.7013C20.716 17.4827 21.5893 17.2573 22.4307 17.04L20.1907 8.99201C19.348 9.20935 18.476 9.43468 18.1067 9.38801C17.6196 9.32763 17.175 9.08049 16.8666 8.69868C16.64 8.41468 16.5267 8.00935 16.3013 7.19868C16.0747 6.38801 15.9627 5.98268 16.0107 5.62668C16.0443 5.38988 16.1251 5.16225 16.2483 4.95726C16.3715 4.75228 16.5346 4.57412 16.728 4.43335C17.0226 4.21468 17.444 4.10668 18.2853 3.88935L21.9013 2.95601C22.744 2.73868 23.164 2.63068 23.5333 2.67735C24.0266 2.74001 24.472 2.98801 24.7733 3.36668C25 3.65068 25.1133 4.05601 25.3387 4.86668C25.5653 5.67735 25.6773 6.08268 25.6293 6.43868C25.5959 6.67537 25.5153 6.90295 25.3923 7.10793C25.2693 7.3129 25.1064 7.49112 24.9133 7.63201C24.6173 7.85068 23.744 8.07601 22.9027 8.29335L25.1427 16.3413C25.984 16.124 26.8573 15.8987 27.2267 15.9453C27.72 16.008 28.1653 16.256 28.4667 16.6347C28.6933 16.9187 28.8067 17.324 29.032 18.1347C29.2587 18.9453 29.3707 19.3507 29.3227 19.7067C29.289 19.9435 29.2082 20.1711 29.085 20.3761C28.9618 20.5811 28.7987 20.7592 28.6053 20.9C28.3107 21.1187 27.8907 21.2267 27.048 21.444Z" fill="#298594"/>
</svg>
